<?xml version="1.0" encoding="utf-8"?>
<!-- Generator: Adobe Illustrator 16.0.3, SVG Export Plug-In . SVG Version: 6.00 Build 0)  -->
<!DOCTYPE svg PUBLIC "-//W3C//DTD SVG 1.1//EN" "http://www.w3.org/Graphics/SVG/1.1/DTD/svg11.dtd">
<svg version="1.1" id="Layer_1" xmlns="http://www.w3.org/2000/svg" xmlns:xlink="http://www.w3.org/1999/xlink" x="0px" y="0px"
	 width="174px" height="136px" viewBox="0 0 174 136" enable-background="new 0 0 174 136" xml:space="preserve">
<g id="Layer_1_1_">
</g>
<g id="Layer_2">
	<path fill="#3D404E" d="M219.271,280.689l-7.203-1.508v22.905c2.49,0.504,4.896,1.049,7.203,1.628V280.689L219.271,280.689z
		 M173.322,265.378l12.464-4.62V227.52l16.083,10v24.078l-9.174-3.398v40.992c-6.182-0.637-12.668-1.055-19.373-1.227V265.378
		L173.322,265.378z M120.76,232.798l19.372-11.489v77.883c-6.881,0.709-13.379,1.688-19.372,2.896V232.798L120.76,232.798z
		 M147.04,207.795L166.414,193v104.876c-2.326,0-4.631,0.03-6.909,0.088v-65.166l-12.465-7.392V207.795z"/>
</g>
<g id="Layer_3">
	<path fill="#3D404E" d="M245.328,321.094c-12.818-9.861-43.324-16.804-78.914-16.804c-35.591,0-66.098,6.942-78.915,16.804
		c19.585-5.41,47.69-8.806,78.915-8.806S225.743,315.684,245.328,321.094z"/>
</g>
<g id="Layer_4">
</g>
<image overflow="visible" enable-background="new    " width="358" height="335" xlink:href="../../../../DESKTOP_OLD/GRAFIKI/ISTOCK/iStock_000014657489XSmall.html"  transform="matrix(0.4385 0 0 0.4147 -164.4995 -187.9189)">
</image>
<path fill-rule="evenodd" clip-rule="evenodd" fill="#C2D840" d="M114.203,60.712l-4.233,4.233l-3.937-3.935l2.604-2.604V30.009
	L88.499,9.871L68.361,30.009v28.398l2.604,2.604l-3.936,3.935l-4.234-4.233V27.704L88.499,2l25.704,25.704V60.712L114.203,60.712z
	 M92.436,82.48l-3.937,3.936l-4.333-4.332l-8.63-8.631l3.936-3.936l6.742,6.742l0,0L92.436,82.48z"/>
<path fill-rule="evenodd" clip-rule="evenodd" fill="#00AA90" d="M114.203,106.76l-25.704,25.705l-13.995-13.996v-7.871
	l13.995,13.994l20.138-20.137V76.057l-2.604-2.604l3.937-3.936l4.233,4.234V106.76L114.203,106.76z M74.504,69.912l11.709-11.708
	l-3.936-3.936l-7.774,7.773V69.912z M74.504,118.469L62.795,106.76V96.168h5.566v8.287l6.144,6.143V118.469L74.504,118.469z
	 M74.504,62.042v7.87l-6.144,6.145v8.082h-5.566l0-10.387L74.504,62.042z"/>
<path fill-rule="evenodd" clip-rule="evenodd" fill="#0097D7" d="M98.094,87.371h7.311v5.564h-7.311V87.371L98.094,87.371z
	 M98.094,47.094h27.628l20.139,20.138l-20.139,20.139h-8.286v5.564h10.591l25.705-25.704l-25.705-25.704H98.094V47.094z
	 M95.018,92.936l-4.233-4.234l3.937-3.936l2.604,2.605h0.77v5.564H95.018L95.018,92.936z M98.094,41.528v5.565h-0.77l-2.604,2.604
	l-3.937-3.935l4.233-4.234H98.094z"/>
<path fill-rule="evenodd" clip-rule="evenodd" fill="#84C346" d="M78.903,87.371h0.771l2.604-2.605l3.936,3.936l-4.234,4.234h-3.076
	V87.371L78.903,87.371z M78.903,47.094v-5.565h3.076l25.704,25.704L94.721,80.195l-3.937-3.936l9.027-9.029L79.674,47.094H78.903z
	 M48.971,92.936L23.267,67.232l25.704-25.704h10.592v5.565h-8.287L31.138,67.232l20.138,20.139h27.627v5.564H48.971L48.971,92.936z
	 M78.903,41.528h-7.311v5.565h7.311V41.528z"/>
<radialGradient id="SVGID_1_" cx="-158.2261" cy="252.2773" r="119.7677" gradientUnits="userSpaceOnUse">
	<stop  offset="0" style="stop-color:#FFFFFF"/>
	<stop  offset="0.53" style="stop-color:#FFFFFF"/>
	<stop  offset="1" style="stop-color:#BCBEC0"/>
</radialGradient>
<path fill-rule="evenodd" clip-rule="evenodd" fill="url(#SVGID_1_)" d="M-175.863,230.232c40.578,0,73.484,32.905,73.484,73.482
	c0,40.578-32.906,73.484-73.484,73.484c-40.577,0-73.483-32.906-73.483-73.484C-249.346,263.138-216.439,230.232-175.863,230.232z"
	/>
<linearGradient id="SVGID_2_" gradientUnits="userSpaceOnUse" x1="-206.4517" y1="468.0127" x2="-124.7991" y2="140.5221">
	<stop  offset="0" style="stop-color:#004062"/>
	<stop  offset="1" style="stop-color:#09BCEF"/>
</linearGradient>
<path fill-rule="evenodd" clip-rule="evenodd" fill="url(#SVGID_2_)" d="M-217.566,364.283l0.006-0.006
	c13.394-5.967,36.808-26.217,60.222-49.975c-3.522-3.567-3.522-3.567-7.106-7.183c20.956-7.866,20.956-7.866,38.791-14.866
	c-5.999,20.207-5.999,20.207-13.681,40.502c-2.884-2.945-2.884-2.945-5.878-6.09c-37.736,33.48-48.336,40.283-61.44,43.83
	l-0.013,0.014C-210.432,368.77-214.08,366.693-217.566,364.283z"/>
<radialGradient id="SVGID_3_" cx="-165.5767" cy="261.1025" r="94.4649" gradientUnits="userSpaceOnUse">
	<stop  offset="0" style="stop-color:#94C947"/>
	<stop  offset="1" style="stop-color:#436026"/>
</radialGradient>
<path fill-rule="evenodd" clip-rule="evenodd" fill="url(#SVGID_3_)" d="M-151.74,371.744
	c21.577-11.014,41.677-32.938,47.966-53.336c-2.484,12.279-8.128,24.045-16.928,33.996c-3.065,3.271-3.118,3.322-6.39,6.4
	c-7.391,6.551-15.784,11.359-24.648,14.424V371.744L-151.74,371.744z M-151.74,363.865c23.146-14.973,40.497-37.291,49.347-63.732
	c-0.246-5.008-1.005-9.996-2.27-14.881l-0.002,0.003c-5.905,20.857-25.111,45.81-47.075,64.458V363.865L-151.74,363.865z
	 M-151.74,282.123v-21.656c6.412-5.361,13.003-10.596,19.792-15.705l0.003-0.004c2.829,2.109,5.544,4.443,8.113,7.013
	c0.312,0.313,0.617,0.631,0.924,0.948C-134.863,264.922-144.038,274.287-151.74,282.123L-151.74,282.123z M-151.74,243.231v-8.949
	c3.197,1.106,6.334,2.439,9.385,3.999l-0.01,0.009C-145.416,239.718-148.55,241.377-151.74,243.231z M-161.125,375.791
	c3.135-1.096,6.274-2.459,9.385-4.047v1.484C-154.819,374.293-157.955,375.148-161.125,375.791L-161.125,375.791z M-151.74,234.282
	v8.949c-9.617,5.59-19.749,12.997-29.701,21.503v-16.736c8.401-5.563,17.37-10.463,26.885-14.618l0.007-0.007
	C-153.607,233.656-152.671,233.96-151.74,234.282L-151.74,234.282z M-151.74,260.467c-10.334,8.641-20.204,17.607-29.701,26.908
	v24.666c9.566-9.506,17.907-17.92,29.701-29.918V260.467L-151.74,260.467z M-151.74,349.713
	c-9.666,8.205-19.865,15.188-29.701,20.062v7.281c0.705,0.053,1.41,0.098,2.115,0.131c9.882-3.352,19.121-7.846,27.585-13.322
	V349.713L-151.74,349.713z M-181.44,235.512c4.306-2.104,8.586-3.777,12.769-4.924c-4.245-0.411-8.518-0.453-12.769-0.129V235.512z
	 M-181.44,230.459v5.053c-15.025,7.34-30.346,19.975-42.792,34.211v-13.971c12.316-12.457,26.919-22.824,38.039-24.777
	C-184.614,230.751-183.029,230.58-181.44,230.459L-181.44,230.459z M-181.44,247.998c-16.549,10.959-30.881,24.508-42.792,40.082
	v22.02c12.008-15.966,27.174-32.016,42.792-45.365V247.998L-181.44,247.998z M-181.44,287.375v24.666
	c-10.618,10.551-22.748,22.453-42.792,42.113v-19.896C-210.679,317.775-196.532,302.154-181.44,287.375L-181.44,287.375z
	 M-181.44,369.775v7.281c-4.297-0.33-8.571-1.035-12.769-2.115l0.003-0.004C-190.074,373.684-185.792,371.934-181.44,369.775
	L-181.44,369.775z M-224.233,250.221c5.98-5.539,12.528-10.383,18.703-13.6c-6.331,2.576-12.749,6.543-18.703,11.773V250.221z
	 M-224.233,248.395v1.826c-8.019,7.428-15.013,16.105-18.703,23.79c2.792-6.851,7.21-13.802,13.1-20.161
	c2.03-2.109,2.063-2.143,4.172-4.166C-225.19,249.246-224.713,248.816-224.233,248.395L-224.233,248.395z M-224.233,255.752
	c-12.418,12.562-22.511,27.248-24.361,37.586c-0.823,5.781-0.958,11.643-0.403,17.449c4.024-13.079,13.141-27.77,24.764-41.064
	V255.752L-224.233,255.752z M-224.233,288.08v22.02c-6.925,9.209-12.802,18.389-17.104,27.006l-0.01,0.01
	c-2.007-3.941-3.639-8.025-4.889-12.201l0.008-0.008C-240.221,311.709-232.861,299.363-224.233,288.08L-224.233,288.08z
	 M-224.233,334.258c-3.589,4.365-7.137,8.789-10.649,13.273l-0.004,0.006c2.127,2.863,4.487,5.607,7.084,8.205
	c0.323,0.322,0.651,0.639,0.978,0.953l2.591-2.541V334.258z"/>
</svg>
